<svg id="Layer_2" data-name="Layer 2" xmlns="http://www.w3.org/2000/svg" viewBox="0 0 1295.09 902.98"><defs><style>.cls-1{fill:#6f1316;}.cls-2,.cls-6{isolation:isolate;font-family:EthnocentricRg-Regular, Ethnocentric;}.cls-2{font-size:150px;fill:#ffdf00;}.cls-3{letter-spacing:-0.06em;}.cls-4{letter-spacing:-0.07em;}.cls-5{letter-spacing:-0.03em;}.cls-6{font-size:36px;fill:#25537b;}.cls-7{letter-spacing:-0.03em;}.cls-8{letter-spacing:-0.1em;}.cls-9{letter-spacing:-0.03em;}.cls-10{letter-spacing:-0.06em;}.cls-11{letter-spacing:-0.21em;}</style></defs><polygon class="cls-1" points="1295.09 348.82 932.67 347.59 820.72 0 712.49 345.11 741.19 373.03 821.01 118.51 903.58 374.86 1170.87 375.77 952.84 529.49 1033.93 784.47 821.01 630.2 607.99 784.47 662.38 611.98 623.64 611.98 623.68 611.87 623.68 611.87 531.89 902.98 820.72 693.8 1109.41 902.98 999.46 557.25 1295.09 348.82"/><text class="cls-2" transform="translate(0 500.22)"><tspan class="cls-3">S</tspan><tspan class="cls-4" x="135.45" y="0">T</tspan><tspan x="259.5" y="0">REL</tspan><tspan class="cls-5" x="659.25" y="0">L</tspan><tspan x="773.4" y="0">A</tspan></text><text class="cls-6" transform="translate(134.71 556.13)">R<tspan class="cls-7" x="36.83" y="0">e</tspan><tspan class="cls-8" x="66.13" y="0">a</tspan><tspan x="103.28" y="0">ching </tspan><tspan class="cls-9" x="263.77" y="0">f</tspan><tspan x="292.25" y="0">or the </tspan><tspan class="cls-10" x="491.4" y="0">s</tspan><tspan class="cls-11" x="523.9" y="0">t</tspan><tspan x="548.49" y="0">ars</tspan></text><polyline class="cls-1" points="712.33 344.2 0.2 294.36 742.12 373.41"/></svg>