<svg id="Layer_1" data-name="Layer 1" xmlns="http://www.w3.org/2000/svg" viewBox="0 0 1295.09 902.98"><defs><style>.cls-1{fill:#021f4b;}.cls-2,.cls-6{isolation:isolate;font-family:EthnocentricRg-Regular, Ethnocentric;}.cls-2{font-size:150px;fill:#115268;}.cls-3{letter-spacing:-0.06em;}.cls-4{letter-spacing:-0.07em;}.cls-5{letter-spacing:-0.03em;}.cls-6{font-size:36px;fill:#4c3b71;}.cls-7{letter-spacing:-0.03em;}.cls-8{letter-spacing:0em;}.cls-9{letter-spacing:-0.03em;}</style></defs><polygon class="cls-1" points="1295.09 348.82 932.67 347.59 820.72 0 712.49 345.11 741.19 373.03 821.01 118.51 903.58 374.86 1170.87 375.77 952.84 529.49 1033.93 784.47 821.01 630.2 607.99 784.47 662.38 611.98 623.64 611.98 623.68 611.87 623.68 611.87 531.89 902.98 820.72 693.8 1109.41 902.98 999.46 557.25 1295.09 348.82"/><text class="cls-2" transform="translate(0 500.22)"><tspan class="cls-3">S</tspan><tspan class="cls-4" x="135.45" y="0">T</tspan><tspan x="259.5" y="0">REL</tspan><tspan class="cls-5" x="659.25" y="0">L</tspan><tspan x="773.4" y="0">A</tspan></text><text class="cls-6" transform="translate(180.71 556.13)">Exp<tspan class="cls-7" x="103.54" y="0">l</tspan><tspan class="cls-8" x="131.18" y="0">ore The ga</tspan><tspan class="cls-9" x="436.28" y="0">l</tspan><tspan x="463.68" y="0">axy</tspan></text><polyline class="cls-1" points="712.33 344.2 0.2 294.36 742.12 373.41"/></svg>