<svg id="Icons" version="1.1" viewBox="0 0 32 32" xml:space="preserve" xmlns="http://www.w3.org/2000/svg" enable-background="new 0 0 32 32"><path d="M16.9 14c-1.8 0-3.3 1.4-3.3 3.1v.7c0 1.1-.6 1.9-1.6 2.2h4.7c1.8 0 3.4-1.4 3.3-3.1 0-1.6-1.4-2.9-3.1-2.9z" fill="none" stroke="#ffffff" stroke-width="2" stroke-linecap="round" stroke-linejoin="round" stroke-miterlimit="10" class="stroke-000000"></path><path d="M20.3 11.5c-1.4-.3-2.8-.5-4.3-.5-7.2 0-13 4-13 9 0 1 .2 2 .7 2.9 1 2 3.6 2.6 5.4 1.3h0c2.4-1.7 5.8 0 5.8 3V29H16c7.2 0 13-4 13-9 0-2.2-1.1-4.2-2.9-5.7" fill="none" stroke="#ffffff" stroke-width="2" stroke-linecap="round" stroke-linejoin="round" stroke-miterlimit="10" class="stroke-000000"></path><path d="m17.4 14.1 9.8-8.8c.4-.4 1.1-.4 1.5 0h0c.4.4.4 1 0 1.4L20 16" fill="none" stroke="#ffffff" stroke-width="2" stroke-linecap="round" stroke-linejoin="round" stroke-miterlimit="10" class="stroke-000000"></path></svg>