<svg viewBox="0 0 32 32" xml:space="preserve" xmlns="http://www.w3.org/2000/svg" enable-background="new 0 0 32 32"><path d="M31.5 7.576A3.895 3.895 0 0 0 30.35 4.8l-3.152-3.153a3.93 3.93 0 0 0-5.55 0L3.126 20.171a1.7 1.7 0 0 0-.395.697L.545 29.635a1.5 1.5 0 0 0 1.818 1.819l8.768-2.187c.263-.072.501-.215.698-.394L30.35 10.35a3.895 3.895 0 0 0 1.15-2.774zm-12.185.648 4.46 4.46-13.007 13.007-4.46-4.46L19.315 8.224zM5 24.166l2.832 2.832-3.773.941.94-3.773zM28.23 8.23l-2.334 2.334-4.46-4.46 2.333-2.334a.928.928 0 0 1 1.308 0l3.153 3.154a.928.928 0 0 1 0 1.306z" fill="#ffffff" class="fill-000000"></path></svg>